<svg xmlns="http://www.w3.org/2000/svg" width="1200" height="600"><path fill-rule="evenodd" clip-rule="evenodd" d="M378.4 103.056c-8.538-4.251-18.91-.773-23.16 7.766-4.252 8.539-.775 18.91 7.763 23.161 8.541 4.25 18.913.775 23.162-7.765 4.253-8.539.776-18.909-7.765-23.162zm-45.077 3.853c-8.538-4.252-18.91-.775-23.162 7.764-4.25 8.54-.772 18.91 7.766 23.161 8.538 4.252 18.91.775 23.162-7.764 4.249-8.539.775-18.91-7.766-23.161zm-45.653-2.71c-8.541-4.251-18.91-.775-23.162 7.766-4.25 8.539-.775 18.91 7.766 23.161 8.538 4.251 18.91.773 23.16-7.764 4.252-8.54.774-18.912-7.764-23.163zm174.469 59.905a15.857 15.857 0 00-6.567 6.85c-3.916 7.87-.713 17.426 7.153 21.344 5.04 2.51 10.775 2.096 15.278-.593l-15.864-27.601zm-79.376 10.266c-9.496-4.729-21.031-.862-25.758 8.635-4.73 9.498-.863 21.032 8.633 25.76 9.499 4.728 21.031.86 25.761-8.635 4.728-9.499.861-21.033-8.636-25.76zm-110.345-.605c-9.117-4.538-20.442-.314-25.296 9.434-4.852 9.749-1.398 21.332 7.719 25.87 9.114 4.538 20.439.314 25.293-9.435 4.855-9.748 1.399-21.331-7.716-25.869zM221.013 158c-6.159-1.578-13.808 7.505-17.089 20.286-3.278 12.781-.946 24.426 5.21 26.005s13.808-7.503 17.086-20.286c3.281-12.781.948-24.424-5.207-26.005zm-32.564-8.318c-3.805-1.007-9.631 8.519-13.007 21.276-3.374 12.757-3.022 23.917.783 24.923 3.808 1.009 9.633-8.519 13.007-21.275 3.376-12.757 3.025-23.917-.783-24.924zm252.729 94.774c-10.114-5.038-22.4-.918-27.438 9.198s-.917 22.402 9.199 27.438c10.117 5.038 22.403.92 27.438-9.196 5.038-10.118.917-22.405-9.199-27.44zm-167.956 4.065c-10.674-5.314-23.637-.967-28.951 9.705-5.314 10.675-.966 23.638 9.706 28.952 10.674 5.313 23.638.969 28.952-9.706 5.312-10.674.967-23.638-9.707-28.951zm-99.014-25.064c-2.266 1.784-1.945 15.57.71 30.788 2.658 15.219 6.649 26.112 8.912 24.327 2.266-1.782 1.945-15.569-.71-30.788-2.658-15.217-6.649-26.111-8.912-24.327zm316.715 94.204c-7.27-3.619-16.097-.659-19.716 6.607-3.617 7.27-.659 16.098 6.611 19.714 7.267 3.619 16.094.659 19.714-6.608 3.616-7.267.658-16.094-6.609-19.713zm-47.208 2.867c-8.574-4.268-18.988-.777-23.258 7.797-4.268 8.576-.778 18.99 7.796 23.258 8.574 4.27 18.99.777 23.258-7.797 4.271-8.574.778-18.987-7.796-23.258zm-102.908 3.594c-10.064-5.015-22.294-.915-27.303 9.152-5.014 10.067-.915 22.294 9.153 27.306s22.294.912 27.306-9.155c5.011-10.068.912-22.294-9.156-27.303zm-67.187-.923c-9.651 2.168-15.484 12.821-13.022 23.793 2.464 10.974 12.286 18.114 21.94 15.947 9.654-2.165 15.484-12.819 13.022-23.793-2.462-10.971-12.287-18.111-21.94-15.947zm-82.639-3.33c1.827 11.736 6.375 24.397 10.161 28.275 3.787 3.877 5.378-2.496 3.555-14.229-1.827-11.736-6.376-24.395-10.163-28.271-3.785-3.881-5.377 2.492-3.553 14.225zm248.998 63.902c-6.123-3.049-13.558-.556-16.606 5.566-3.048 6.123-.555 13.558 5.567 16.606 6.122 3.048 13.557.555 16.605-5.567 3.05-6.122.557-13.557-5.566-16.605zm-38.088.39c-7.071-3.519-15.655-.641-19.176 6.43-3.519 7.071-.641 15.655 6.427 19.177 7.071 3.519 15.658.641 19.176-6.431 3.521-7.067.64-15.654-6.427-19.176z"/><path fill-rule="evenodd" clip-rule="evenodd" fill="#0068B4" d="M420.333 98.708c-8.445-4.205-18.698-.766-22.901 7.676-4.203 8.444-.765 18.698 7.678 22.901s18.698.766 22.901-7.678c4.203-8.441.764-18.695-7.678-22.899zm-170.395-4.186c-6.197-3.083-15.588 3.187-20.974 14.004-5.383 10.818-4.728 22.09 1.467 25.175 6.195 3.084 15.585-3.187 20.972-14.003 5.386-10.818 4.73-22.09-1.465-25.176zm-24.371-10.585c-3.097-1.542-9.977 5.979-15.363 16.798-5.383 10.817-7.239 20.84-4.141 22.381 3.098 1.544 9.975-5.978 15.361-16.795 5.386-10.82 7.241-20.841 4.143-22.384zm206.079 88.406c-8.758-4.358-19.391-.793-23.749 7.962-4.358 8.755-.793 19.388 7.961 23.746 8.755 4.359 19.388.794 23.746-7.96 4.359-8.756.794-19.389-7.958-23.748zm-104.99-.14c-11.057-5.506-24.487-1.002-29.993 10.055-5.505 11.058-1.002 24.487 10.054 29.993 11.06 5.505 24.49 1.003 29.993-10.055 5.508-11.058 1.005-24.489-10.054-29.993zm161.815 68.11c-8.507-4.235-18.84-.771-23.074 7.737-4.237 8.507-.772 18.838 7.734 23.074 8.51 4.234 18.84.771 23.077-7.736 4.234-8.507.77-18.84-7.737-23.075zm-102.53 8.897c-10.114-5.036-22.4-.917-27.438 9.199s-.917 22.403 9.199 27.438c10.116 5.038 22.403.917 27.438-9.199 5.038-10.114.917-22.401-9.199-27.438zM210.894 234.2c-6.973.086-11.031 12.652-9.065 28.059 1.968 15.409 9.217 27.833 16.192 27.747 6.973-.088 11.031-12.65 9.063-28.06-1.967-15.409-9.218-27.834-16.19-27.746zm181.536 92.866c-8.577-4.27-18.99-.777-23.26 7.797-4.268 8.574-.778 18.99 7.799 23.258 8.574 4.271 18.988.777 23.258-7.797 4.268-8.573.777-18.989-7.797-23.258zm-174.243-3.006c-4.903 8.631-2.007 22.418 6.466 30.791 8.476 8.37 19.324 8.158 24.229-.476 4.903-8.633 2.007-22.421-6.469-30.791-8.474-8.369-19.324-8.158-24.226.476zm140.735 66.466c-8.102-4.032-16.81-3.004-19.45 2.3-2.64 5.301 1.791 12.87 9.892 16.902 8.102 4.035 16.813 3.007 19.45-2.297 2.64-5.3-1.788-12.869-9.892-16.905zm-46.919-.733c-9.922-4.939-20.111-4.647-22.749.653-2.64 5.304 3.266 13.609 13.191 18.549 9.922 4.941 20.111 4.649 22.751-.653 2.638-5.302-3.268-13.607-13.193-18.549zm15.487-136.052c-10.116-5.035-22.403-.917-27.44 9.199-5.035 10.116-.917 22.402 9.199 27.44 10.117 5.035 22.403.917 27.44-9.199 5.036-10.116.917-22.403-9.199-27.44z"/><path fill-rule="evenodd" clip-rule="evenodd" d="M272.486 385.455c-9.055-6.665-18.996-9.388-22.199-6.078-3.201 3.31 1.542 11.4 10.597 18.067 9.055 6.668 18.993 9.391 22.196 6.079 3.203-3.309-1.542-11.4-10.594-18.068z"/><path fill-rule="evenodd" clip-rule="evenodd" fill="#6D6E71" d="M166.225 167.757C22.299 250.902 134.499 365.011 297.34 293.455c-6.846-9.187-11.671-7.522-12.165-18.843-164.36 42.948-216.458-22.187-116.452-107.467l-2.498.612z"/><path fill-rule="evenodd" clip-rule="evenodd" fill="#0068B4" d="M169.937 164.689C26.011 247.835 133.429 363.944 296.27 292.39c-6.849-9.187-6.893-9.524-7.386-20.845-164.36 42.948-216.456-22.187-116.452-107.467l-2.495.611z"/><path d="M547.573 402.658a16.237 16.237 0 005.604 3.126c2.11.689 4.49 1.035 7.099 1.035 6.233 0 11.32-2.071 15.27-6.235 3.953-4.162 5.931-9.554 5.931-16.192 0-6.024-1.65-10.975-4.952-14.831-3.299-3.854-7.502-5.795-12.586-5.795-3.069 0-5.965.77-8.69 2.305-2.726 1.534-5.275 3.836-7.675 6.905v29.682h-.001zm-5.505 5.908v-75.669h5.505V366.3c2.821-2.743 5.681-4.74 8.636-6.006 2.935-1.284 6.177-1.917 9.688-1.917 6.446 0 11.741 2.397 15.885 7.194 4.146 4.795 6.218 10.953 6.218 18.494 0 8.461-2.629 15.33-7.866 20.587-5.257 5.275-12.108 7.905-20.586 7.905-2.687 0-5.469-.328-8.347-.979-2.861-.653-5.909-1.669-9.133-3.012zm69.709-66.116v-9.553h5.907v9.553h-5.907zm0 69.089v-51.936h5.907v51.936h-5.907zm27.482 0v-2.187l33.958-44.183h-31.54v-5.565h41.095v2.301l-33.96 44.243h33.96v5.391h-43.513zm74.392-12.759c0 3.472.478 5.795 1.438 6.908.959 1.131 2.666 1.689 5.141 1.689 1.267 0 2.609-.212 3.991-.653 1.383-.422 2.936-1.093 4.661-1.995v5.679a24.38 24.38 0 01-4.756 1.611c-1.556.364-3.11.538-4.682.538-4.319 0-7.35-1.036-9.114-3.09-1.767-2.072-2.647-5.66-2.647-10.801V364.44h-11.069v-4.837h11.299v-11.857l4.395-5.063h1.344v16.92h13.947v4.837h-13.947v34.34h-.001zm77.919 7.025c-3.377 2.34-6.657 4.045-9.879 5.18a29.87 29.87 0 01-9.959 1.687c-7.75 0-13.986-2.55-18.688-7.654-4.699-5.084-7.059-11.857-7.059-20.279 0-7.887 2.225-14.198 6.658-18.975 4.45-4.776 10.281-7.177 17.515-7.177 6.714 0 12.126 2.266 16.252 6.813 4.123 4.528 6.177 10.553 6.177 18.034v.23h-40.541v.614c0 6.792 1.824 12.278 5.451 16.479 3.646 4.203 8.345 6.293 14.121 6.293 3.451 0 6.753-.612 9.956-1.821 3.185-1.228 6.505-3.146 9.995-5.776v6.352h.001zm-38.792-27.092h32.997c-.594-4.564-2.377-8.249-5.332-11.013-2.974-2.782-6.541-4.164-10.744-4.164-4.316 0-8.039 1.402-11.186 4.221-3.146 2.803-5.063 6.466-5.735 10.956zm101.518 30.755a30.774 30.774 0 01-6.425 2.341c-2.17.498-4.376.749-6.659.749-7.98 0-14.542-2.534-19.683-7.598-5.123-5.046-7.693-11.532-7.693-19.455 0-7.676 2.646-14.103 7.923-19.282 5.275-5.162 11.914-7.75 19.895-7.75 1.938 0 3.896.191 5.813.556 1.938.385 3.878.958 5.815 1.746v6.466c-1.977-1.17-3.992-2.015-6.007-2.552-2.033-.556-4.162-.824-6.406-.824-5.776 0-10.667 2.11-14.697 6.331-4.029 4.219-6.045 9.362-6.045 15.426 0 6.12 1.997 11.261 6.007 15.425 4.009 4.162 8.92 6.233 14.735 6.233 2.167 0 4.373-.364 6.598-1.074 2.227-.708 4.511-1.782 6.83-3.203v6.465h-.001zm22.514 2.071v-78.642h5.622v35.015c2.514-3.071 5.257-5.373 8.269-6.908 2.994-1.534 6.272-2.302 9.825-2.302 5.89 0 10.416 1.842 13.583 5.505 3.164 3.666 4.737 8.902 4.737 15.676v31.656h-5.794v-28.895c0-6.29-1.075-10.992-3.225-14.061-2.167-3.072-5.448-4.606-9.86-4.606-3.606 0-6.887.922-9.843 2.782-2.952 1.862-5.525 4.586-7.692 8.174v36.605h-5.622v.001z"/><path fill="#0068B4" d="M1052.617 129.11l-56.602 162.547-47.225-107.709h-68.247l.023.045h-2.992c-3.601-7.096-8.763-12.986-15.497-17.692-14.5-10.082-37.035-15.147-67.707-15.147-31.806 0-55.74 4.258-71.75 12.723-5.386 2.837-9.987 6.188-13.795 10.071h-9.537a86.98 86.98 0 00.809-12.016c0-23.2-8.068-41.281-24.162-54.232-12.033-9.68-27.748-15.726-47.071-18.144-6.445-.807-13.286-1.209-20.527-1.209H465.384l.044.074h-.434v28.988h17.074l67.544 117.66h21.493l38.048 59.694c.589.879 1.478 2.14 2.666 3.692 2.723 3.913 4.053 6.871 4.053 8.865 0 1.77-.586 3.256-1.844 4.429-1.184 1.26-3.03 2.216-5.467 2.96l-.225 6.275h93.463v-6.275c-4.438-1.036-8.502-3.107-12.196-6.357-3.688-3.25-8.571-9.896-14.627-19.802l-34.572-54.37c19.721-5.765 34.65-14.703 44.696-26.889a63.616 63.616 0 003.253-4.349h7.187l-.033.287h63.016c1.077-6.899 4.313-11.913 9.812-15.041 5.445-3.073 13.854-4.634 25.123-4.634 9.917 0 17.463 2.316 22.694 6.952 5.172 4.637 7.814 11.322 7.814 20.162 0 .432-.054 1.134-.162 2.157-.106.971-.16 1.78-.16 2.426h-30.187c-25.392 0-43.938.863-55.687 2.587-11.755 1.778-20.863 4.69-27.387 8.789-8.248 4.957-14.5 11.32-18.814 19.082-4.312 7.814-6.466 16.604-6.466 26.415 0 15.686 5.605 27.817 16.817 36.389 11.212 8.568 27.115 12.883 47.655 12.883 17.786 0 33.152-2.374 46.089-7.171 12.992-4.798 22.804-11.697 29.541-20.755v2.966c0 4.151.323 7.923.969 11.374.648 3.506 1.62 6.684 3.02 9.649h57.79c-1.187-2.966-1.994-6.092-2.48-9.489-.485-3.34-.7-7.331-.7-11.859v-82.746l-.002-.381h11.723l67.495 130.802-15.492 67.035 43.424-3.045L1100 129.11h-47.383zM619.79 181.728c-8.052 4.212-21.201 6.353-39.373 6.353h-57.11v-52.748h55.408c6.35 0 12.077.19 17.184.563 11.232.83 19.45 2.582 24.627 5.278 7.613 3.91 11.38 10.634 11.38 20.314 0 9.235-4.066 15.95-12.116 20.24zm203.853 66.836c0 12.129-3.666 21.402-11.05 27.814-7.388 6.417-17.954 9.648-31.752 9.648-10.351 0-18.114-1.508-23.236-4.528-5.175-2.963-7.761-7.491-7.761-13.475 0-8.409 5.068-14.392 15.148-17.843 10.135-3.503 28.032-5.23 53.744-5.23h4.906v3.614z"/><path d="M189.168 515.564l-6.365-16.262H162.31l-6.295 16.262H150l20.214-51.339h5.001l20.109 51.339h-6.156zm-8.218-21.612l-5.945-15.843c-.77-2.004-1.563-4.464-2.378-7.379-.514 2.238-1.248 4.698-2.203 7.379l-6.016 15.843h16.542zm61.9-24.935c-5.619 0-10.055 1.872-13.307 5.613-3.252 3.743-4.878 8.865-4.878 15.37 0 6.691 1.568 11.861 4.703 15.511s7.607 5.473 13.412 5.473c3.567 0 7.635-.641 12.205-1.924v5.211c-3.544 1.329-7.916 1.993-13.114 1.993-7.531 0-13.342-2.284-17.434-6.854-4.092-4.569-6.137-11.062-6.137-19.479 0-5.27.984-9.886 2.955-13.85 1.97-3.963 4.814-7.017 8.533-9.162 3.719-2.145 8.097-3.218 13.133-3.218 5.361 0 10.048.979 14.059 2.938l-2.518 5.106c-3.872-1.818-7.742-2.728-11.612-2.728zm45.919 46.547l-17.346-45.323h-.28c.326 3.591.49 7.857.49 12.8v32.523h-5.491v-51.129h8.953l16.192 42.177h.28l16.332-42.177h8.883v51.129h-5.945v-32.943c0-3.777.163-7.88.49-12.31h-.28l-17.486 45.253h-4.792zm64.662 0l-17.346-45.323h-.28c.326 3.591.489 7.857.489 12.8v32.523h-5.49v-51.129h8.953l16.192 42.177h.28l16.332-42.177h8.883v51.129h-5.945v-32.943c0-3.777.163-7.88.49-12.31h-.28l-17.486 45.253h-4.792zm42.037 0v-51.129h5.945v51.129h-5.945zm38.574 0v-51.129h5.945v45.743h22.557v5.386h-28.502zm65.677 0h-28.502v-51.129h28.502v5.281h-22.557v16.472h21.193v5.246h-21.193v18.814h22.557v5.316zm40.532-51.128h6.4l-18.43 51.129h-5.875l-18.326-51.129h6.295l11.75 33.084c1.352 3.801 2.424 7.496 3.217 11.086a92.543 92.543 0 013.287-11.296l11.682-32.874zm41.932 51.128H553.68v-51.129h28.502v5.281h-22.557v16.472h21.193v5.246h-21.193v18.814h22.557v5.316zm11.33 0v-51.129h5.945v45.743h22.556v5.386h-28.501zm83.932-39.098c0 3.265-.915 5.935-2.745 8.009-1.831 2.075-4.425 3.462-7.782 4.162v.279c4.104.514 7.146 1.818 9.129 3.917 1.98 2.099 2.972 4.85 2.972 8.253 0 4.873-1.69 8.621-5.07 11.243-3.381 2.624-8.183 3.935-14.408 3.935-2.706 0-5.182-.204-7.432-.611a25.353 25.353 0 01-6.557-2.151v-5.525a31.78 31.78 0 007.081 2.501c2.506.571 4.879.856 7.117.856 8.835 0 13.253-3.462 13.253-10.387 0-6.201-4.872-9.303-14.618-9.303h-5.035v-5.001h5.105c3.986 0 7.146-.879 9.479-2.641 2.33-1.76 3.497-4.201 3.497-7.326 0-2.494-.857-4.452-2.571-5.875-1.713-1.422-4.039-2.134-6.978-2.134-2.237 0-4.348.304-6.328.91-1.982.606-4.245 1.726-6.785 3.356l-2.938-3.917c2.099-1.654 4.517-2.954 7.256-3.899 2.74-.943 5.625-1.416 8.655-1.416 4.966 0 8.825 1.137 11.577 3.41 2.749 2.273 4.126 5.392 4.126 9.355zm53.298-7.449c-5.62 0-10.056 1.872-13.308 5.613-3.252 3.743-4.878 8.865-4.878 15.37 0 6.691 1.566 11.861 4.703 15.511 3.136 3.649 7.606 5.473 13.412 5.473 3.567 0 7.635-.641 12.204-1.924v5.211c-3.543 1.329-7.916 1.993-13.113 1.993-7.532 0-13.342-2.284-17.434-6.854-4.092-4.569-6.138-11.062-6.138-19.479 0-5.27.984-9.886 2.955-13.85 1.969-3.963 4.813-7.017 8.533-9.162 3.718-2.145 8.097-3.218 13.132-3.218 5.362 0 10.048.979 14.059 2.938l-2.518 5.106c-3.87-1.818-7.741-2.728-11.609-2.728zm67.669 20.914c0 8.183-2.068 14.618-6.207 19.304-4.139 4.687-9.892 7.029-17.258 7.029-7.532 0-13.342-2.302-17.434-6.906s-6.138-11.104-6.138-19.497c0-8.323 2.051-14.775 6.155-19.357 4.103-4.58 9.932-6.871 17.486-6.871 7.344 0 13.079 2.332 17.206 6.994 4.128 4.662 6.19 11.097 6.19 19.304zm-40.741 0c0 6.924 1.474 12.176 4.424 15.754 2.948 3.58 7.233 5.369 12.853 5.369 5.665 0 9.943-1.784 12.834-5.352 2.892-3.566 4.336-8.823 4.336-15.771 0-6.878-1.438-12.095-4.318-15.65-2.88-3.555-7.141-5.333-12.781-5.333-5.666 0-9.975 1.789-12.923 5.368-2.951 3.579-4.425 8.784-4.425 15.615zm74.77 25.633l-17.347-45.323h-.279c.325 3.591.489 7.857.489 12.8v32.523h-5.491v-51.129h8.952l16.193 42.177h.279l16.331-42.177h8.883v51.129h-5.945v-32.943c0-3.777.164-7.88.49-12.31h-.28l-17.485 45.253h-4.79zm74.455-36.23c0 5.176-1.766 9.157-5.298 11.942-3.532 2.786-8.585 4.18-15.16 4.18h-6.015v20.108h-5.945v-51.129h13.253c12.776.001 19.165 4.966 19.165 14.899zm-26.473 11.016h5.35c5.27 0 9.08-.85 11.437-2.553 2.354-1.701 3.531-4.43 3.531-8.184 0-3.38-1.107-5.897-3.321-7.554-2.217-1.654-5.666-2.482-10.352-2.482h-6.645v20.773zm69.313 25.214l-6.364-16.262h-20.494l-6.295 16.262h-6.015l20.214-51.339h5l20.109 51.339h-6.155zm-8.218-21.612l-5.945-15.843c-.77-2.004-1.562-4.464-2.378-7.379-.513 2.238-1.247 4.698-2.202 7.379l-6.016 15.843h16.541zm61.339 21.612h-6.784l-27.941-42.91h-.279c.371 5.036.56 9.652.56 13.849v29.062h-5.492v-51.129h6.715l27.873 42.736h.28c-.048-.63-.152-2.652-.315-6.067s-.223-5.858-.174-7.327v-29.342h5.559v51.128zM1029.926 490l13.64-25.564H1050l-17.066 31.3v19.829h-6.015v-19.549l-17.03-31.58h6.504L1029.926 490z"/></svg>